<svg width="24" height="24" viewBox="0 0 24 24" fill="none" xmlns="http://www.w3.org/2000/svg">
<path d="M19 10H5C3.89543 10 3 10.8954 3 12V19C3 20.1046 3.89543 21 5 21H19C20.1046 21 21 20.1046 21 19V12C21 10.8954 20.1046 10 19 10Z" stroke="white" stroke-width="2" stroke-linecap="round" stroke-linejoin="round"/>
<path d="M7 10V6C7 4.67392 7.52678 3.40215 8.46447 2.46447C9.40215 1.52678 10.6739 1 12 1C13.3261 1 14.5979 1.52678 15.5355 2.46447C16.4732 3.40215 17 4.67392 17 6V10" stroke="white" stroke-width="2" stroke-linecap="round" stroke-linejoin="round"/>
</svg>
